<svg width="40" height="40" viewBox="0 0 40 40" fill="none" xmlns="http://www.w3.org/2000/svg">
<g clip-path="url(#clip0_345_14)">
<path d="M29.9267 3.61502L30.1117 3.70669L31.555 4.54002C31.8463 4.70822 32.0798 4.96062 32.225 5.26403C32.3702 5.56745 32.4201 5.90768 32.3683 6.24002L32.325 6.44002L31.38 9.74502C31.3154 9.97084 31.2038 10.1805 31.0526 10.3601C30.9013 10.5398 30.7138 10.6855 30.5023 10.7876C30.2908 10.8898 30.0601 10.946 29.8253 10.9528C29.5905 10.9595 29.357 10.9165 29.14 10.8267L28.9433 10.73L26.3867 15.1567C27.92 16.3584 28.6683 17.645 29.1767 18.845C29.5483 19.7167 29.8667 20.8534 29.6867 22.0767C29.5117 23.2634 28.8917 24.3467 27.7867 25.2234L27.4717 25.4567C26.75 25.965 26.7383 26.5517 26.925 27.285L27.1 27.9234C27.405 29.07 27.7683 30.8634 27.22 32.94C26.76 34.6784 25.6483 36.0484 24.3867 36.9584C23.145 37.855 21.61 38.41 20.1567 38.335C17.89 38.2184 15.575 37.6517 12.5 35.8767C9.42499 34.1017 7.77666 32.38 6.54332 30.4767C5.75166 29.255 5.46499 27.6467 5.61999 26.1234C5.77666 24.5767 6.40832 22.9284 7.68332 21.6617C8.98999 20.3634 10.45 19.75 11.5633 19.4084L12.0883 19.2567L12.5417 19.14C13.415 18.9167 13.8733 18.7517 14.0083 17.9234L14.0367 17.7C14.1783 16.115 14.8333 14.905 15.8583 14.0917C16.825 13.325 17.9717 13.0334 18.9117 12.9184C20.0983 12.7734 21.4467 12.765 23.055 13.3234L23.5 13.49L26.0567 9.06336C25.8534 8.94584 25.6773 8.78671 25.5398 8.59638C25.4023 8.40605 25.3066 8.18883 25.2589 7.95894C25.2112 7.72904 25.2127 7.49167 25.2631 7.26237C25.3136 7.03307 25.4119 6.81701 25.5517 6.62836L25.6917 6.46169L28.08 3.99169C28.3138 3.74988 28.6154 3.5845 28.945 3.51727C29.2746 3.45004 29.6168 3.48412 29.9267 3.61502ZM19.3167 16.2267C18.6833 16.305 18.2233 16.4717 17.9283 16.705C17.7183 16.8717 17.485 17.1534 17.3867 17.755L17.3583 17.995C17.25 19.215 16.865 20.2217 16.135 20.98C15.4417 21.7 14.54 22.0434 13.6083 22.3067L12.66 22.5667C11.7667 22.825 10.8917 23.1717 10.0333 24.025C9.39832 24.6567 9.02999 25.5384 8.93499 26.4617C8.83999 27.4084 9.04832 28.2134 9.33999 28.6617C10.27 30.0984 11.52 31.4617 14.1667 32.99C16.8133 34.5184 18.62 34.9184 20.3283 35.0067C20.8617 35.0334 21.665 34.8117 22.4367 34.2567C23.19 33.7134 23.7683 32.9534 23.9967 32.0884C24.3067 30.9184 24.17 29.9867 23.9467 29.0834L23.79 28.4834C23.5067 27.4317 23.2733 26.36 23.5833 25.2817C23.8417 24.3817 24.4083 23.62 25.235 22.9684L25.5583 22.7284C26.1917 22.285 26.345 21.8884 26.39 21.59C26.445 21.2184 26.36 20.7367 26.11 20.1484C25.72 19.2317 25.1817 18.2867 23.7233 17.35L23.395 17.15L23.2717 17.0784C21.5483 16.0984 20.3767 16.0967 19.3167 16.2267ZM16.7783 26.8L18.2217 27.6334C18.4127 27.742 18.5804 27.8874 18.7151 28.0611C18.8498 28.2348 18.9487 28.4334 19.0063 28.6455C19.0639 28.8577 19.079 29.0791 19.0507 29.297C19.0223 29.515 18.9512 29.7252 18.8413 29.9156C18.7314 30.1059 18.5849 30.2727 18.4103 30.4062C18.2357 30.5397 18.0364 30.6373 17.8239 30.6935C17.6114 30.7497 17.3899 30.7633 17.1721 30.7335C16.9543 30.7037 16.7446 30.6312 16.555 30.52L15.1117 29.6867C14.9206 29.5781 14.7529 29.4327 14.6182 29.259C14.4835 29.0853 14.3846 28.8866 14.327 28.6745C14.2694 28.4624 14.2543 28.241 14.2827 28.023C14.311 27.805 14.3821 27.5948 14.4921 27.4045C14.602 27.2141 14.7484 27.0474 14.923 26.9139C15.0976 26.7804 15.2969 26.6827 15.5094 26.6265C15.7219 26.5703 15.9434 26.5568 16.1612 26.5865C16.379 26.6163 16.5887 26.6889 16.7783 26.8ZM21.25 20.7217C21.7879 21.0324 22.1908 21.5323 22.3803 22.1238C22.5697 22.7154 22.5322 23.3563 22.275 23.9217L22.165 24.1367C21.8492 24.7007 21.3272 25.1204 20.7085 25.3078C20.0899 25.4952 19.4228 25.4357 18.8471 25.1418C18.2714 24.8479 17.8319 24.3425 17.6208 23.7315C17.4097 23.1206 17.4435 22.4516 17.715 21.865L17.835 21.6367C17.999 21.352 18.2175 21.1025 18.4781 20.9023C18.7386 20.7022 19.036 20.5553 19.3533 20.4702C19.6706 20.3851 20.0016 20.3633 20.3274 20.4062C20.6531 20.449 20.9672 20.5557 21.2517 20.72L21.25 20.7217Z" fill="#3C9C68"/>
</g>
<defs>
<clipPath id="clip0_345_14">
<rect width="40" height="40" fill="white"/>
</clipPath>
</defs>
</svg>
