<svg width="36" height="36" viewBox="0 0 36 36" fill="none" xmlns="http://www.w3.org/2000/svg">
<g clip-path="url(#clip0_345_21)">
<path d="M28.5 4.5C29.6935 4.5 30.8381 4.97411 31.682 5.81802C32.5259 6.66193 33 7.80653 33 9V24C33 25.1935 32.5259 26.3381 31.682 27.182C30.8381 28.0259 29.6935 28.5 28.5 28.5H10.9995L6 32.25C4.764 33.177 3 32.295 3 30.75V9C3 7.80653 3.47411 6.66193 4.31802 5.81802C5.16193 4.97411 6.30653 4.5 7.5 4.5H28.5ZM28.5 7.5H7.5C7.10218 7.5 6.72064 7.65804 6.43934 7.93934C6.15804 8.22064 6 8.60218 6 9V28.5L9.1995 26.1C9.71879 25.7105 10.3504 25.5 10.9995 25.5H28.5C28.8978 25.5 29.2794 25.342 29.5607 25.0607C29.842 24.7794 30 24.3978 30 24V9C30 8.60218 29.842 8.22064 29.5607 7.93934C29.2794 7.65804 28.8978 7.5 28.5 7.5ZM16.5 18C16.8823 18.0004 17.25 18.1468 17.5281 18.4093C17.8061 18.6717 17.9734 19.0304 17.9958 19.4121C18.0182 19.7938 17.894 20.1696 17.6486 20.4627C17.4032 20.7559 17.0551 20.9443 16.6755 20.9895L16.5 21H12C11.6177 20.9996 11.25 20.8532 10.9719 20.5907C10.6939 20.3283 10.5266 19.9696 10.5042 19.5879C10.4818 19.2062 10.606 18.8304 10.8514 18.5373C11.0968 18.2441 11.4449 18.0557 11.8245 18.0105L12 18H16.5ZM24 12C24.3978 12 24.7794 12.158 25.0607 12.4393C25.342 12.7206 25.5 13.1022 25.5 13.5C25.5 13.8978 25.342 14.2794 25.0607 14.5607C24.7794 14.842 24.3978 15 24 15H12C11.6022 15 11.2206 14.842 10.9393 14.5607C10.658 14.2794 10.5 13.8978 10.5 13.5C10.5 13.1022 10.658 12.7206 10.9393 12.4393C11.2206 12.158 11.6022 12 12 12H24Z" fill="#3C9C68"/>
</g>
<defs>
<clipPath id="clip0_345_21">
<rect width="36" height="36" fill="white"/>
</clipPath>
</defs>
</svg>
