<svg width="36" height="36" viewBox="0 0 36 36" fill="none" xmlns="http://www.w3.org/2000/svg">
<g clip-path="url(#clip0_345_28)">
<path fill-rule="evenodd" clip-rule="evenodd" d="M6 10.5C6 8.51088 6.79018 6.60322 8.1967 5.1967C9.60322 3.79018 11.5109 3 13.5 3H22.5C24.4891 3 26.3968 3.79018 27.8033 5.1967C29.2098 6.60322 30 8.51088 30 10.5V19.5C30 21.4891 29.2098 23.3968 27.8033 24.8033C26.3968 26.2098 24.4891 27 22.5 27H19.5V30H22.5C22.8978 30 23.2794 30.158 23.5607 30.4393C23.842 30.7206 24 31.1022 24 31.5C24 31.8978 23.842 32.2794 23.5607 32.5607C23.2794 32.842 22.8978 33 22.5 33H13.5C13.1022 33 12.7206 32.842 12.4393 32.5607C12.158 32.2794 12 31.8978 12 31.5C12 31.1022 12.158 30.7206 12.4393 30.4393C12.7206 30.158 13.1022 30 13.5 30H16.5V27H13.5C11.5109 27 9.60322 26.2098 8.1967 24.8033C6.79018 23.3968 6 21.4891 6 19.5V10.5ZM18 24H22.5C23.6935 24 24.8381 23.5259 25.682 22.682C26.5259 21.8381 27 20.6935 27 19.5H22.5C22.1022 19.5 21.7206 19.342 21.4393 19.0607C21.158 18.7794 21 18.3978 21 18C21 17.6022 21.158 17.2206 21.4393 16.9393C21.7206 16.658 22.1022 16.5 22.5 16.5H27V13.5H22.5C22.1022 13.5 21.7206 13.342 21.4393 13.0607C21.158 12.7794 21 12.3978 21 12C21 11.6022 21.158 11.2206 21.4393 10.9393C21.7206 10.658 22.1022 10.5 22.5 10.5H27C27 9.30653 26.5259 8.16193 25.682 7.31802C24.8381 6.47411 23.6935 6 22.5 6H13.5C12.3065 6 11.1619 6.47411 10.318 7.31802C9.47411 8.16193 9 9.30653 9 10.5H13.5C13.8978 10.5 14.2794 10.658 14.5607 10.9393C14.842 11.2206 15 11.6022 15 12C15 12.3978 14.842 12.7794 14.5607 13.0607C14.2794 13.342 13.8978 13.5 13.5 13.5H9V16.5H13.5C13.8978 16.5 14.2794 16.658 14.5607 16.9393C14.842 17.2206 15 17.6022 15 18C15 18.3978 14.842 18.7794 14.5607 19.0607C14.2794 19.342 13.8978 19.5 13.5 19.5H9C9 20.6935 9.47411 21.8381 10.318 22.682C11.1619 23.5259 12.3065 24 13.5 24H18Z" fill="#3C9C68"/>
</g>
<defs>
<clipPath id="clip0_345_28">
<rect width="36" height="36" fill="white"/>
</clipPath>
</defs>
</svg>
