<svg width="32" height="32" viewBox="0 0 32 32" fill="none" xmlns="http://www.w3.org/2000/svg">
<path d="M28.2529 3.02051C28.6879 2.94802 29.1333 3.07046 29.4697 3.35547C29.8061 3.64047 30 4.05913 30 4.5V21.833C30 24.8706 27.5376 27.333 24.5 27.333C21.4624 27.333 19 24.8706 19 21.833C19.0001 18.7955 21.4625 16.333 24.5 16.333C25.4005 16.333 26.2498 16.5509 27 16.9346V6.27051L14 8.4375V24.5L13.9932 24.7832C13.8457 27.6891 11.4426 30 8.5 30C5.46246 30 3.00004 27.5375 3 24.5C3 21.4624 5.46243 19 8.5 19C9.40038 19 10.2498 19.217 11 19.6006V7.16699L11.0059 7.03027C11.0668 6.35718 11.5752 5.80071 12.2529 5.6875L28.2529 3.02051ZM8.5 22C7.11929 22 6 23.1193 6 24.5C6.00004 25.8807 7.11931 27 8.5 27C9.88069 27 11 25.8807 11 24.5C11 23.1193 9.88071 22 8.5 22ZM24.5 19.333C23.1194 19.333 22.0001 20.4524 22 21.833C22 23.2137 23.1193 24.333 24.5 24.333C25.8807 24.333 27 23.2137 27 21.833C26.9999 20.4524 25.8806 19.333 24.5 19.333Z" fill="#17AE69"/>
</svg>
