<svg width="20" height="24" viewBox="0 0 20 24" fill="none" xmlns="http://www.w3.org/2000/svg">
<path d="M10 0.0126953C12.6427 0.0126953 14.9684 0.901678 16.9766 2.67969C18.9836 4.45695 19.9873 6.84324 19.9873 9.83984C19.9873 11.8362 19.161 14.0088 17.5059 16.3574C15.8518 18.7043 13.3496 21.2463 10 23.9834C6.6504 21.2463 4.14816 18.7043 2.49414 16.3574C0.838971 14.0088 0.0126953 11.8362 0.0126953 9.83984C0.0127302 6.84324 1.01635 4.45695 3.02344 2.67969C5.03161 0.901678 7.35727 0.0126953 10 0.0126953ZM10 2.3877C7.89284 2.3877 6.11343 3.08332 4.66309 4.47559C3.21252 5.86813 2.48734 7.65684 2.4873 9.83984C2.4873 11.2633 3.10333 12.8908 4.33301 14.7217C5.563 16.5529 7.4501 18.5887 9.99219 20.8291L10 20.8369L10.0078 20.8291C12.5499 18.5887 14.437 16.5529 15.667 14.7217C16.8967 12.8908 17.5127 11.2633 17.5127 9.83984C17.5127 7.65684 16.7875 5.86813 15.3369 4.47559C13.8866 3.08332 12.1072 2.3877 10 2.3877ZM10 7.21289C10.6843 7.21289 11.2696 7.44636 11.7568 7.91406C12.2439 8.38169 12.4872 8.94329 12.4873 9.59961C12.4873 10.2561 12.244 10.8184 11.7568 11.2861C11.2696 11.7538 10.6843 11.9873 10 11.9873C9.31575 11.9873 8.73036 11.7538 8.24316 11.2861C7.75596 10.8184 7.5127 10.2561 7.5127 9.59961C7.51279 8.94329 7.75605 8.38169 8.24316 7.91406C8.73038 7.44636 9.3157 7.21289 10 7.21289Z" fill="currentColor" stroke="currentColor" stroke-width="0.025"/>
</svg>
