<svg width="23" height="24" viewBox="0 0 23 24" fill="none" xmlns="http://www.w3.org/2000/svg">
<path fill-rule="evenodd" clip-rule="evenodd" d="M23 18.7328C23 17.6908 22.9919 16.9596 22.9797 16.8395L22.9448 16.5989C22.7274 15.4063 21.8743 14.3879 20.6693 13.9072C20.3603 13.7839 20.104 13.7155 19.6852 13.6472C19.5933 13.632 18.8469 13.6227 17.2753 13.6151L14.9979 13.6038L14.8046 13.5165C14.2474 13.264 13.9302 12.829 13.7736 12.1037C13.7228 11.8645 13.7228 10.9775 13.7736 10.6376C13.8814 9.918 14.0359 9.3313 14.3674 8.36301C14.6134 7.64524 14.6361 7.57464 14.7622 7.16258C15.0834 6.12018 15.3072 5.10811 15.3743 4.40367C15.3865 4.27265 15.4106 4.0542 15.4269 3.91559C15.4431 3.77698 15.4554 3.59834 15.4554 3.5167L15.4478 3.34019C15.4138 2.91356 15.2651 2.39338 15.0587 1.99968C14.4039 0.748359 13.1289 -0.0149685 11.7135 0.000222587L11.3986 0.00964509C10.2801 0.127375 9.318 0.680115 8.68962 1.56499C8.43689 1.92063 8.32593 2.12206 8.23401 2.40233L8.19535 2.52734C8.04893 3.04763 8.01817 3.35758 8.06291 3.96521C8.13944 5.06676 8.35315 6.08113 8.82903 7.55142L9.04955 8.211C9.28901 8.91027 9.41959 9.33186 9.5172 9.73367L9.60655 10.1382C9.68738 10.5355 9.71669 10.73 9.72632 11.0403L9.73075 11.4008C9.73075 11.8774 9.72642 11.9535 9.68576 12.1433C9.54085 12.8092 9.21214 13.265 8.70229 13.5071L8.59837 13.5523L8.46973 13.6038L5.93819 13.6151C3.47144 13.6246 3.39992 13.6267 3.18233 13.6666C2.89361 13.7179 2.5357 13.8205 2.29581 13.9173C1.21818 14.3597 0.415171 15.2405 0.1223 16.2999C0.00231873 16.7309 4.41179e-08 16.79 0 18.6945V20.4301H23V18.7328ZM1.94729 18.5004C1.94749 17.6551 1.94842 17.2694 1.95996 17.0411C1.96397 16.962 1.96843 16.9305 1.96947 16.9237L1.99862 16.8131L1.99925 16.81C2.12342 16.3607 2.48285 15.9318 3.03468 15.7031C3.14205 15.6605 3.36098 15.5958 3.52135 15.5668C3.54653 15.5653 3.61028 15.5614 3.75391 15.5587C4.08848 15.5524 4.7033 15.5496 5.9458 15.5448H5.94706L8.85247 15.5317L9.19846 15.3928L9.32646 15.3419C10.5344 14.8586 11.237 13.8807 11.5348 12.7734L11.5887 12.5504L11.59 12.5441C11.6782 12.1322 11.6774 11.8687 11.6774 11.4008C11.6774 10.7159 11.6498 10.4187 11.5152 9.75691C11.3795 9.08303 11.2229 8.55386 10.8929 7.59037L10.8923 7.58911C10.288 5.82933 10.0765 4.86023 10.0051 3.83267L10.0045 3.8245C9.98596 3.57265 9.98977 3.46082 9.99626 3.39107C10.002 3.32943 10.015 3.24519 10.0672 3.05814C10.0943 2.96501 10.1047 2.94733 10.1084 2.94004C10.121 2.91557 10.1573 2.85 10.2808 2.67621L10.2814 2.67559C10.5684 2.27152 11.0015 2.00499 11.5589 1.93498C11.5659 1.93473 11.5735 1.934 11.5817 1.93372C11.6287 1.93215 11.6842 1.93132 11.737 1.93058C12.4107 1.92419 13.0115 2.27868 13.3307 2.88854L13.3313 2.88979C13.3713 2.96618 13.4223 3.09268 13.4612 3.24157C13.4796 3.31206 13.4921 3.37634 13.4999 3.42939C13.5037 3.45536 13.5062 3.47635 13.5075 3.4922C13.5079 3.49765 13.5085 3.50228 13.5087 3.50602L13.5056 3.56067C13.5021 3.60939 13.4975 3.6584 13.4935 3.69259C13.477 3.83309 13.4504 4.0678 13.4359 4.22276C13.3856 4.74926 13.2008 5.62447 12.9004 6.59912L12.8991 6.60289C12.7817 6.98669 12.7663 7.035 12.524 7.74175V7.74301C12.2143 8.64778 12.0288 9.3006 11.8998 10.0339L11.8479 10.3543C11.8 10.674 11.7889 11.1014 11.7889 11.4084C11.7889 11.6671 11.7945 12.1519 11.8688 12.5014L11.87 12.5077C11.9867 13.0479 12.1902 13.6096 12.5614 14.1183C12.946 14.6453 13.4413 15.0205 13.9954 15.2716L13.9967 15.2722L14.5701 15.531L14.9877 15.5335L17.2658 15.5448C18.051 15.5486 18.6239 15.5529 19.0097 15.558C19.2035 15.5606 19.342 15.5629 19.4336 15.5656C19.439 15.5657 19.4441 15.5661 19.4488 15.5662C19.7003 15.6101 19.8068 15.6433 19.9425 15.6975L20.0635 15.7503C20.638 16.0232 20.9735 16.5162 21.0394 17.0122C21.0399 17.0274 21.0411 17.0513 21.0419 17.0857C21.0441 17.1751 21.0459 17.3008 21.0476 17.4608C21.0505 17.7306 21.0515 18.0844 21.052 18.5004H1.94729Z" fill="currentColor"/>
<path d="M23 21.8542H0V24H23V21.8542Z" fill="currentColor"/>
</svg>
