<svg width="21" height="24" viewBox="0 0 21 24" fill="none" xmlns="http://www.w3.org/2000/svg">
<path d="M5.82129 0.0126953V2.41211H15.1787V0.0126953H17.4873V2.41211H18.667C19.305 2.41219 19.8511 2.64586 20.3057 3.11328C20.7603 3.58088 20.9873 4.14312 20.9873 4.7998V21.5996C20.9873 22.2563 20.7603 22.8185 20.3057 23.2861C19.8511 23.7537 19.3051 23.9872 18.667 23.9873H2.33301C1.69494 23.9872 1.14891 23.7537 0.694336 23.2861C0.239743 22.8185 0.0126953 22.2563 0.0126953 21.5996V4.7998C0.0127403 4.14312 0.239722 3.58088 0.694336 3.11328C1.14887 2.64586 1.69503 2.41219 2.33301 2.41211H3.5127V0.0126953H5.82129ZM2.32129 21.6123H18.6787V9.58789H2.32129V21.6123ZM5.83301 16.8125C6.16012 16.8125 6.43416 16.9261 6.65527 17.1533C6.87647 17.3808 6.9873 17.663 6.9873 18C6.9873 18.337 6.87647 18.6192 6.65527 18.8467C6.43416 19.0739 6.16012 19.1875 5.83301 19.1875C5.50588 19.1874 5.23184 19.0741 5.01074 18.8467C4.78955 18.6192 4.67871 18.337 4.67871 18C4.67871 17.663 4.78955 17.3808 5.01074 17.1533C5.23184 16.9259 5.50588 16.8126 5.83301 16.8125ZM10.5 16.8125C10.8272 16.8125 11.1011 16.926 11.3223 17.1533C11.5435 17.3808 11.6543 17.663 11.6543 18C11.6543 18.337 11.5435 18.6192 11.3223 18.8467C11.1011 19.074 10.8272 19.1875 10.5 19.1875C10.1728 19.1875 9.89888 19.074 9.67773 18.8467C9.45654 18.6192 9.3457 18.337 9.3457 18C9.3457 17.663 9.45654 17.3808 9.67773 17.1533C9.89888 16.926 10.1728 16.8125 10.5 16.8125ZM15.167 16.8125C15.4941 16.8126 15.7682 16.9259 15.9893 17.1533C16.2105 17.3808 16.3213 17.663 16.3213 18C16.3213 18.337 16.2105 18.6192 15.9893 18.8467C15.7682 19.0741 15.4941 19.1874 15.167 19.1875C14.8399 19.1875 14.5658 19.0739 14.3447 18.8467C14.1235 18.6192 14.0127 18.337 14.0127 18C14.0127 17.663 14.1235 17.3808 14.3447 17.1533C14.5658 16.9261 14.8399 16.8125 15.167 16.8125ZM5.83301 12.0127C6.16017 12.0127 6.43414 12.1262 6.65527 12.3535C6.87647 12.581 6.9873 12.8632 6.9873 13.2002C6.98726 13.5371 6.87641 13.8184 6.65527 14.0459C6.4341 14.2734 6.1603 14.3877 5.83301 14.3877C5.50586 14.3876 5.23185 14.2733 5.01074 14.0459C4.78982 13.8185 4.67875 13.5369 4.67871 13.2002C4.67871 12.8633 4.78958 12.581 5.01074 12.3535C5.23185 12.1261 5.50586 12.0128 5.83301 12.0127ZM10.5 12.0127C10.8272 12.0127 11.1011 12.1261 11.3223 12.3535C11.5435 12.581 11.6543 12.8632 11.6543 13.2002C11.6543 13.537 11.5433 13.8185 11.3223 14.0459C11.1011 14.2734 10.8273 14.3877 10.5 14.3877C10.1727 14.3877 9.89891 14.2734 9.67773 14.0459C9.4567 13.8185 9.34575 13.537 9.3457 13.2002C9.3457 12.8632 9.45654 12.581 9.67773 12.3535C9.89889 12.1261 10.1728 12.0127 10.5 12.0127ZM15.167 12.0127C15.4941 12.0128 15.7682 12.1261 15.9893 12.3535C16.2104 12.581 16.3213 12.8633 16.3213 13.2002C16.3212 13.5369 16.2102 13.8185 15.9893 14.0459C15.7682 14.2733 15.4941 14.3876 15.167 14.3877C14.8397 14.3877 14.5659 14.2734 14.3447 14.0459C14.1236 13.8184 14.0127 13.5371 14.0127 13.2002C14.0127 12.8632 14.1235 12.581 14.3447 12.3535C14.5659 12.1262 14.8398 12.0127 15.167 12.0127ZM2.32129 7.21289H18.6787V4.78711H2.32129V7.21289Z" fill="#currentColor" stroke="#currentColor" stroke-width="0.025"/>
</svg>
