<svg width="9" height="9" viewBox="0 0 9 9" fill="none" xmlns="http://www.w3.org/2000/svg">
<path d="M0 3.44484C0 2.73162 0.152969 2.07724 0.458906 1.48171C0.764844 0.886172 1.17562 0.392269 1.69125 0L2.17594 0.684688C1.76344 0.998504 1.43516 1.39434 1.19109 1.87219C0.947031 2.35005 0.825 2.87426 0.825 3.44484H0ZM7.425 3.44484C7.425 2.87426 7.30297 2.35005 7.05891 1.87219C6.81484 1.39434 6.48656 0.998504 6.07406 0.684688L6.55875 0C7.07438 0.392269 7.48516 0.886172 7.79109 1.48171C8.09703 2.07724 8.25 2.73162 8.25 3.44484H7.425ZM0.825 7.29621V6.44035H1.65V3.44484C1.65 2.85287 1.82188 2.32687 2.16563 1.86685C2.50938 1.40682 2.95625 1.10549 3.50625 0.962843V0.663292C3.50625 0.484988 3.56641 0.333429 3.68672 0.208616C3.80703 0.083803 3.95312 0.0213965 4.125 0.0213965C4.29688 0.0213965 4.44297 0.083803 4.56328 0.208616C4.68359 0.333429 4.74375 0.484988 4.74375 0.663292V0.962843C5.29375 1.10549 5.74062 1.40682 6.08437 1.86685C6.42812 2.32687 6.6 2.85287 6.6 3.44484V6.44035H7.425V7.29621H0.825ZM4.125 8.58C3.89812 8.58 3.70391 8.4962 3.54234 8.32859C3.38078 8.16098 3.3 7.9595 3.3 7.72414H4.95C4.95 7.9595 4.86922 8.16098 4.70766 8.32859C4.54609 8.4962 4.35187 8.58 4.125 8.58ZM2.475 6.44035H5.775V3.44484C5.775 2.97411 5.61344 2.57115 5.29031 2.23594C4.96719 1.90072 4.57875 1.73312 4.125 1.73312C3.67125 1.73312 3.28281 1.90072 2.95969 2.23594C2.63656 2.57115 2.475 2.97411 2.475 3.44484V6.44035Z" fill="#4C4C4C"/>
</svg>
