<svg
  width="9"
  height="10"
  viewBox="-1 -1 11 12"
  xmlns="http://www.w3.org/2000/svg"
>
  <g transform="scale(0.9)" transform-origin="center">
    <path
      d="M1.38095 7.91671V7.08337H2.21429V4.16671C2.21429 3.93754 2.2438 3.71185 2.30283 3.48962C2.36186 3.2674 2.4504 3.0556 2.56845 2.85421L3.19345 3.47921C3.14484 3.59032 3.10838 3.70317 3.08408 3.81775C3.05977 3.93233 3.04762 4.04865 3.04762 4.16671V7.08337H5.63095L0.297619 1.75004L0.880952 1.16671L8.54762 8.83337L7.96429 9.41671L6.44345 7.91671H1.38095ZM7.21429 6.31254L6.38095 5.47921V4.16671C6.38095 3.70837 6.21776 3.31601 5.89137 2.98962C5.56498 2.66324 5.17262 2.50004 4.71429 2.50004C4.53373 2.50004 4.36012 2.52782 4.19345 2.58337C4.02679 2.63893 3.87401 2.72226 3.73512 2.83337L3.13095 2.22921C3.26984 2.1181 3.41915 2.02087 3.57887 1.93754C3.73859 1.85421 3.90873 1.79171 4.08929 1.75004V1.45837C4.08929 1.28476 4.15005 1.13719 4.27158 1.01567C4.39311 0.894138 4.54067 0.833374 4.71429 0.833374C4.8879 0.833374 5.03547 0.894138 5.15699 1.01567C5.27852 1.13719 5.33929 1.28476 5.33929 1.45837V1.75004C5.89484 1.88893 6.34623 2.18233 6.69345 2.63025C7.04067 3.07817 7.21429 3.59032 7.21429 4.16671V6.31254ZM4.71429 9.16671C4.48512 9.16671 4.28894 9.08511 4.12574 8.92192C3.96255 8.75872 3.88095 8.56254 3.88095 8.33337H5.54762C5.54762 8.56254 5.46602 8.75872 5.30283 8.92192C5.13963 9.08511 4.94345 9.16671 4.71429 9.16671Z"
      fill="#B0B0B0"
    />
  </g>
</svg>
