<svg width="16" height="16" viewBox="0 0 16 16" fill="none" xmlns="http://www.w3.org/2000/svg">
<path d="M1.93333 15.8C1.45666 15.8 1.04861 15.6473 0.709164 15.3418C0.369719 15.0363 0.199997 14.669 0.199997 14.24V3.32001C0.199997 2.89101 0.369719 2.52376 0.709164 2.21826C1.04861 1.91276 1.45666 1.76001 1.93333 1.76001H2.8V0.200012H4.53333V1.76001H11.4667V0.200012H13.2V1.76001H14.0667C14.5433 1.76001 14.9514 1.91276 15.2908 2.21826C15.6303 2.52376 15.8 2.89101 15.8 3.32001V14.24C15.8 14.669 15.6303 15.0363 15.2908 15.3418C14.9514 15.6473 14.5433 15.8 14.0667 15.8H1.93333ZM1.93333 14.24H14.0667V6.44001H1.93333V14.24ZM1.93333 4.88001H14.0667V3.32001H1.93333V4.88001ZM8 9.56001C7.75444 9.56001 7.54861 9.48526 7.3825 9.33576C7.21639 9.18626 7.13333 9.00101 7.13333 8.78001C7.13333 8.55901 7.21639 8.37376 7.3825 8.22426C7.54861 8.07476 7.75444 8.00001 8 8.00001C8.24555 8.00001 8.45139 8.07476 8.6175 8.22426C8.78361 8.37376 8.86666 8.55901 8.86666 8.78001C8.86666 9.00101 8.78361 9.18626 8.6175 9.33576C8.45139 9.48526 8.24555 9.56001 8 9.56001ZM4.53333 9.56001C4.28778 9.56001 4.08194 9.48526 3.91583 9.33576C3.74972 9.18626 3.66666 9.00101 3.66666 8.78001C3.66666 8.55901 3.74972 8.37376 3.91583 8.22426C4.08194 8.07476 4.28778 8.00001 4.53333 8.00001C4.77889 8.00001 4.98472 8.07476 5.15083 8.22426C5.31694 8.37376 5.4 8.55901 5.4 8.78001C5.4 9.00101 5.31694 9.18626 5.15083 9.33576C4.98472 9.48526 4.77889 9.56001 4.53333 9.56001ZM11.4667 9.56001C11.2211 9.56001 11.0153 9.48526 10.8492 9.33576C10.6831 9.18626 10.6 9.00101 10.6 8.78001C10.6 8.55901 10.6831 8.37376 10.8492 8.22426C11.0153 8.07476 11.2211 8.00001 11.4667 8.00001C11.7122 8.00001 11.9181 8.07476 12.0842 8.22426C12.2503 8.37376 12.3333 8.55901 12.3333 8.78001C12.3333 9.00101 12.2503 9.18626 12.0842 9.33576C11.9181 9.48526 11.7122 9.56001 11.4667 9.56001ZM8 12.68C7.75444 12.68 7.54861 12.6053 7.3825 12.4558C7.21639 12.3063 7.13333 12.121 7.13333 11.9C7.13333 11.679 7.21639 11.4938 7.3825 11.3443C7.54861 11.1948 7.75444 11.12 8 11.12C8.24555 11.12 8.45139 11.1948 8.6175 11.3443C8.78361 11.4938 8.86666 11.679 8.86666 11.9C8.86666 12.121 8.78361 12.3063 8.6175 12.4558C8.45139 12.6053 8.24555 12.68 8 12.68ZM4.53333 12.68C4.28778 12.68 4.08194 12.6053 3.91583 12.4558C3.74972 12.3063 3.66666 12.121 3.66666 11.9C3.66666 11.679 3.74972 11.4938 3.91583 11.3443C4.08194 11.1948 4.28778 11.12 4.53333 11.12C4.77889 11.12 4.98472 11.1948 5.15083 11.3443C5.31694 11.4938 5.4 11.679 5.4 11.9C5.4 12.121 5.31694 12.3063 5.15083 12.4558C4.98472 12.6053 4.77889 12.68 4.53333 12.68ZM11.4667 12.68C11.2211 12.68 11.0153 12.6053 10.8492 12.4558C10.6831 12.3063 10.6 12.121 10.6 11.9C10.6 11.679 10.6831 11.4938 10.8492 11.3443C11.0153 11.1948 11.2211 11.12 11.4667 11.12C11.7122 11.12 11.9181 11.1948 12.0842 11.3443C12.2503 11.4938 12.3333 11.679 12.3333 11.9C12.3333 12.121 12.2503 12.3063 12.0842 12.4558C11.9181 12.6053 11.7122 12.68 11.4667 12.68Z" fill="#4C4C4C"/>
</svg>
