<svg width="24" height="24" viewBox="0 0 24 24" fill="none" xmlns="http://www.w3.org/2000/svg">
<circle cx="12" cy="12" r="12" fill="#E4E4E4"/>
<path d="M6.39999 19.2C5.95999 19.2 5.58332 19.059 5.26999 18.777C4.95665 18.495 4.79999 18.156 4.79999 17.76V7.68C4.79999 7.284 4.95665 6.945 5.26999 6.663C5.58332 6.381 5.95999 6.24 6.39999 6.24H7.19999V4.8H8.79999V6.24H15.2V4.8H16.8V6.24H17.6C18.04 6.24 18.4167 6.381 18.73 6.663C19.0433 6.945 19.2 7.284 19.2 7.68V17.76C19.2 18.156 19.0433 18.495 18.73 18.777C18.4167 19.059 18.04 19.2 17.6 19.2H6.39999ZM6.39999 17.76H17.6V10.56H6.39999V17.76ZM6.39999 9.12H17.6V7.68H6.39999V9.12ZM12 13.44C11.7733 13.44 11.5833 13.371 11.43 13.233C11.2767 13.095 11.2 12.924 11.2 12.72C11.2 12.516 11.2767 12.345 11.43 12.207C11.5833 12.069 11.7733 12 12 12C12.2267 12 12.4167 12.069 12.57 12.207C12.7233 12.345 12.8 12.516 12.8 12.72C12.8 12.924 12.7233 13.095 12.57 13.233C12.4167 13.371 12.2267 13.44 12 13.44ZM8.79999 13.44C8.57332 13.44 8.38332 13.371 8.22999 13.233C8.07665 13.095 7.99999 12.924 7.99999 12.72C7.99999 12.516 8.07665 12.345 8.22999 12.207C8.38332 12.069 8.57332 12 8.79999 12C9.02665 12 9.21665 12.069 9.36999 12.207C9.52332 12.345 9.59999 12.516 9.59999 12.72C9.59999 12.924 9.52332 13.095 9.36999 13.233C9.21665 13.371 9.02665 13.44 8.79999 13.44ZM15.2 13.44C14.9733 13.44 14.7833 13.371 14.63 13.233C14.4767 13.095 14.4 12.924 14.4 12.72C14.4 12.516 14.4767 12.345 14.63 12.207C14.7833 12.069 14.9733 12 15.2 12C15.4267 12 15.6167 12.069 15.77 12.207C15.9233 12.345 16 12.516 16 12.72C16 12.924 15.9233 13.095 15.77 13.233C15.6167 13.371 15.4267 13.44 15.2 13.44ZM12 16.32C11.7733 16.32 11.5833 16.251 11.43 16.113C11.2767 15.975 11.2 15.804 11.2 15.6C11.2 15.396 11.2767 15.225 11.43 15.087C11.5833 14.949 11.7733 14.88 12 14.88C12.2267 14.88 12.4167 14.949 12.57 15.087C12.7233 15.225 12.8 15.396 12.8 15.6C12.8 15.804 12.7233 15.975 12.57 16.113C12.4167 16.251 12.2267 16.32 12 16.32ZM8.79999 16.32C8.57332 16.32 8.38332 16.251 8.22999 16.113C8.07665 15.975 7.99999 15.804 7.99999 15.6C7.99999 15.396 8.07665 15.225 8.22999 15.087C8.38332 14.949 8.57332 14.88 8.79999 14.88C9.02665 14.88 9.21665 14.949 9.36999 15.087C9.52332 15.225 9.59999 15.396 9.59999 15.6C9.59999 15.804 9.52332 15.975 9.36999 16.113C9.21665 16.251 9.02665 16.32 8.79999 16.32ZM15.2 16.32C14.9733 16.32 14.7833 16.251 14.63 16.113C14.4767 15.975 14.4 15.804 14.4 15.6C14.4 15.396 14.4767 15.225 14.63 15.087C14.7833 14.949 14.9733 14.88 15.2 14.88C15.4267 14.88 15.6167 14.949 15.77 15.087C15.9233 15.225 16 15.396 16 15.6C16 15.804 15.9233 15.975 15.77 16.113C15.6167 16.251 15.4267 16.32 15.2 16.32Z" fill="#4C4C4C"/>
</svg>
