<svg width="24" height="24" viewBox="0 0 24 24" fill="none" xmlns="http://www.w3.org/2000/svg">
<path d="M12 13.7002C13.6342 13.7002 15.2436 13.8916 16.8281 14.2754C18.4116 14.6589 19.9716 15.2341 21.5078 16.002V16.0029C22.1995 16.3607 22.7539 16.8785 23.1729 17.5605C23.5906 18.241 23.7998 18.9862 23.7998 19.7998V23.7998H0.200195V19.7998C0.200229 18.9862 0.409351 18.241 0.827148 17.5605C1.246 16.8786 1.79964 16.3597 2.49121 16.002C4.02768 15.2339 5.58808 14.659 7.17188 14.2754C8.75643 13.8916 10.3658 13.7002 12 13.7002ZM12 16.2998C10.5838 16.2998 9.18043 16.4712 7.79004 16.8125C6.39967 17.1538 5.02259 17.6645 3.66016 18.3457L3.65332 18.3506C3.3974 18.4928 3.1902 18.6916 3.03516 18.9453C2.87766 19.203 2.79984 19.4897 2.7998 19.7998V21.2002H21.2002V19.7998C21.2002 19.4897 21.1223 19.203 20.9648 18.9453C20.8485 18.755 20.7026 18.5958 20.5293 18.4678L20.3467 18.3506L20.3477 18.3496L20.3398 18.3457L19.8281 18.0986C18.6329 17.5396 17.4266 17.1111 16.21 16.8125C14.8196 16.4712 13.4162 16.2998 12 16.2998ZM12 0.200195C13.5965 0.200195 14.9579 0.766505 16.0957 1.9043C17.2335 3.04209 17.7998 4.40346 17.7998 6C17.7998 7.59654 17.2335 8.95791 16.0957 10.0957C14.9579 11.2335 13.5965 11.7998 12 11.7998C10.4035 11.7998 9.04209 11.2335 7.9043 10.0957C6.76651 8.95791 6.2002 7.59653 6.2002 6C6.2002 4.40346 6.7665 3.04209 7.9043 1.9043C9.04209 0.766505 10.4035 0.200195 12 0.200195ZM12 2.7998C11.1215 2.7998 10.3649 3.11553 9.74023 3.74023C9.11553 4.36494 8.7998 5.12153 8.7998 6C8.7998 6.87846 9.11553 7.63506 9.74023 8.25977C10.3649 8.88447 11.1215 9.2002 12 9.2002C12.8785 9.2002 13.6351 8.88447 14.2598 8.25977C14.8845 7.63506 15.2002 6.87847 15.2002 6C15.2002 5.12153 14.8845 4.36494 14.2598 3.74023C13.6351 3.11553 12.8785 2.7998 12 2.7998Z" fill="currentColor" stroke="white" stroke-width="0.4"/>
</svg>
