<svg width="20" height="18" viewBox="0 0 20 18" fill="none" xmlns="http://www.w3.org/2000/svg">
<path d="M1 18C0.447715 18 0 17.5523 0 17V16C0 15.4477 0.447715 15 1 15H19C19.5523 15 20 15.4477 20 16V17C20 17.5523 19.5523 18 19 18H1ZM1 10.5C0.447715 10.5 0 10.0523 0 9.5V8.5C0 7.94772 0.447715 7.5 1 7.5H19C19.5523 7.5 20 7.94772 20 8.5V9.5C20 10.0523 19.5523 10.5 19 10.5H1ZM1 3C0.447715 3 0 2.55228 0 2V1C0 0.447715 0.447715 0 1 0H19C19.5523 0 20 0.447715 20 1V2C20 2.55228 19.5523 3 19 3H1Z" fill="#F14F21"/>
</svg>
