<svg width="22" height="22" viewBox="0 0 22 22" fill="none" xmlns="http://www.w3.org/2000/svg">
<g clip-path="url(#clip0_85_60)">
<path d="M17.875 8.9375C17.875 10.9098 17.2348 12.7316 16.1563 14.2098L21.5961 19.6539C22.1332 20.191 22.1332 21.0633 21.5961 21.6004C21.059 22.1375 20.1867 22.1375 19.6496 21.6004L14.2098 16.1562C12.7316 17.2391 10.9098 17.875 8.9375 17.875C4.00039 17.875 0 13.8746 0 8.9375C0 4.00039 4.00039 0 8.9375 0C13.8746 0 17.875 4.00039 17.875 8.9375ZM8.9375 15.125C9.75006 15.125 10.5547 14.965 11.3054 14.654C12.0561 14.3431 12.7382 13.8873 13.3127 13.3127C13.8873 12.7382 14.3431 12.0561 14.654 11.3054C14.965 10.5547 15.125 9.75005 15.125 8.9375C15.125 8.12495 14.965 7.32035 14.654 6.56965C14.3431 5.81894 13.8873 5.13684 13.3127 4.56228C12.7382 3.98771 12.0561 3.53195 11.3054 3.221C10.5547 2.91004 9.75006 2.75 8.9375 2.75C8.12495 2.75 7.32035 2.91004 6.56965 3.221C5.81894 3.53195 5.13684 3.98771 4.56228 4.56228C3.98771 5.13684 3.53195 5.81894 3.221 6.56965C2.91004 7.32035 2.75 8.12495 2.75 8.9375C2.75 9.75005 2.91004 10.5547 3.221 11.3054C3.53195 12.0561 3.98771 12.7382 4.56228 13.3127C5.13684 13.8873 5.81894 14.3431 6.56965 14.654C7.32035 14.965 8.12495 15.125 8.9375 15.125Z" fill="#F14F21"/>
</g>
<defs>
<clipPath id="clip0_85_60">
<rect width="22" height="22" fill="white"/>
</clipPath>
</defs>
</svg>
